# MagicaVoxel @ Ephtracy

# group
o 

# material
mtllib Monster.mtl
usemtl palette

# normals
vn -1 0 0
vn 1 0 0
vn 0 0 1
vn 0 0 -1
vn 0 -1 0
vn 0 1 0

# texcoords
vt 0.00195313 0.5
vt 0.0136719 0.5
vt 0.0527344 0.5
vt 0.876953 0.5
vt 0.955078 0.5

# verts
v -1.4 0 0.5
v -1.4 0 -0.4
v -1.4 1.2 0.6
v -1.4 1.2 0.5
v -1.4 1.3 0.7
v -1.4 1.3 0.6
v -1.4 1.9 0.7
v -1.4 1.9 0.6
v -1.4 2.1 0.6
v -1.4 2.1 0.5
v -1.4 2.3 0.5
v -1.4 2.3 -0.4
v -1.3 2.1 0.6
v -1.3 2.1 0.5
v -1.3 2.3 0.5
v -1.3 2.3 -0.4
v -1.3 2.4 0.6
v -1.3 2.4 -0.4
v -1.2 2.4 0.6
v -1.2 2.4 -0.4
v -1.2 2.5 0.6
v -1.2 2.5 -0.4
v -1.1 2.5 0.6
v -1.1 2.5 -0.4
v -1.1 2.6 0.6
v -1.1 2.6 -0.4
v -0.9 2.6 0.6
v -0.9 2.6 -0.4
v -0.9 2.7 0.6
v -0.9 2.7 -0.4
v -0.9 3.3 0.6
v -0.9 3.3 0.5
v -0.9 3.4 0.5
v -0.9 3.4 -0.4
v -0.5 2.8 0.6
v -0.5 2.8 -0.4
v -0.5 2.9 0.6
v -0.5 2.9 -0.4
v -0.4 2.9 0.6
v -0.4 2.9 -0.4
v -0.4 3 0.6
v -0.4 3 -0.4
v -0.3 3 0.6
v -0.3 3 -0.4
v -0.3 3.1 0.6
v -0.3 3.1 -0.4
v -0.2 2 -0.4
v -0.2 2 -0.5
v -0.2 2.1 -0.4
v -0.2 2.1 -0.5
v -0.2 2.5 -0.4
v -0.2 2.5 -0.5
v -0.2 2.6 -0.4
v -0.2 2.6 -0.5
v -0.2 3.1 0.6
v -0.2 3.1 -0.4
v -0.2 3.2 0.6
v -0.2 3.2 -0.4
v -0.1 1.9 -0.4
v -0.1 1.9 -0.5
v -0.1 2 -0.4
v -0.1 2 -0.5
v -0.1 2.2 -0.4
v -0.1 2.2 -0.5
v -0.1 2.4 -0.4
v -0.1 2.4 -0.5
v 0.2 2 -0.4
v 0.2 2 -0.5
v 0.2 2.1 -0.4
v 0.2 2.1 -0.5
v 0.2 2.5 -0.4
v 0.2 2.5 -0.5
v 0.2 2.6 -0.4
v 0.2 2.6 -0.5
v 0.5 0 0.5
v 0.5 0 -0.4
v 0.5 0.5 0.5
v 0.5 0.5 -0.4
v 0.8 2.8 0.6
v 0.8 2.8 -0.4
v 0.8 3.3 0.6
v 0.8 3.3 0.5
v 0.8 3.4 0.5
v 0.8 3.4 -0.4
v -0.7 2.8 0.6
v -0.7 2.8 -0.4
v -0.7 3.3 0.6
v -0.7 3.3 0.5
v -0.7 3.4 0.5
v -0.7 3.4 -0.4
v -0.4 0 0.5
v -0.4 0 -0.4
v -0.4 0.5 0.5
v -0.4 0.5 -0.4
v -0.1 2 -0.4
v -0.1 2 -0.5
v -0.1 2.1 -0.4
v -0.1 2.1 -0.5
v -0.1 2.5 -0.4
v -0.1 2.5 -0.5
v -0.1 2.6 -0.4
v -0.1 2.6 -0.5
v 0.2 1.9 -0.4
v 0.2 1.9 -0.5
v 0.2 2 -0.4
v 0.2 2 -0.5
v 0.2 2.2 -0.4
v 0.2 2.2 -0.5
v 0.2 2.4 -0.4
v 0.2 2.4 -0.5
v 0.3 2 -0.4
v 0.3 2 -0.5
v 0.3 2.1 -0.4
v 0.3 2.1 -0.5
v 0.3 2.5 -0.4
v 0.3 2.5 -0.5
v 0.3 2.6 -0.4
v 0.3 2.6 -0.5
v 0.3 3.1 0.6
v 0.3 3.1 -0.4
v 0.3 3.2 0.6
v 0.3 3.2 -0.4
v 0.4 3 0.6
v 0.4 3 -0.4
v 0.4 3.1 0.6
v 0.4 3.1 -0.4
v 0.5 2.9 0.6
v 0.5 2.9 -0.4
v 0.5 3 0.6
v 0.5 3 -0.4
v 0.6 2.8 0.6
v 0.6 2.8 -0.4
v 0.6 2.9 0.6
v 0.6 2.9 -0.4
v 1 2.6 0.6
v 1 2.6 -0.4
v 1 2.7 0.6
v 1 2.7 -0.4
v 1 3.3 0.6
v 1 3.3 0.5
v 1 3.4 0.5
v 1 3.4 -0.4
v 1.2 2.5 0.6
v 1.2 2.5 -0.4
v 1.2 2.6 0.6
v 1.2 2.6 -0.4
v 1.3 2.3 0.5
v 1.3 2.3 -0.4
v 1.3 2.4 0.6
v 1.3 2.4 0.5
v 1.3 2.5 0.6
v 1.3 2.5 -0.4
v 1.4 2.1 0.6
v 1.4 2.1 0.5
v 1.4 2.3 0.5
v 1.4 2.4 0.6
v 1.4 2.4 0.5
v 1.5 0 0.5
v 1.5 0 -0.4
v 1.5 1.2 0.6
v 1.5 1.2 0.5
v 1.5 1.3 0.7
v 1.5 1.3 0.6
v 1.5 1.9 0.7
v 1.5 1.9 0.6
v 1.5 2.1 0.6
v 1.5 2.1 0.5
v 1.5 2.3 0.5
v 1.5 2.3 -0.4
v -1.4 1.3 0.7
v -1.4 1.9 0.7
v 1.5 1.3 0.7
v 1.5 1.9 0.7
v -1.4 1.2 0.6
v -1.4 1.3 0.6
v -1.4 1.9 0.6
v -1.4 2.1 0.6
v -1.3 2.1 0.6
v -1.3 2.4 0.6
v -1.2 2.4 0.6
v -1.2 2.5 0.6
v -1.1 2.5 0.6
v -1.1 2.6 0.6
v -0.9 2.6 0.6
v -0.9 2.7 0.6
v -0.9 3.3 0.6
v -0.7 2.7 0.6
v -0.7 2.8 0.6
v -0.7 3.3 0.6
v -0.5 2.8 0.6
v -0.5 2.9 0.6
v -0.4 2.9 0.6
v -0.4 3 0.6
v -0.3 3 0.6
v -0.3 3.1 0.6
v -0.2 3.1 0.6
v -0.2 3.2 0.6
v 0.3 3.1 0.6
v 0.3 3.2 0.6
v 0.4 3 0.6
v 0.4 3.1 0.6
v 0.5 2.9 0.6
v 0.5 3 0.6
v 0.6 2.8 0.6
v 0.6 2.9 0.6
v 0.8 2.7 0.6
v 0.8 2.8 0.6
v 0.8 3.3 0.6
v 1 2.6 0.6
v 1 2.7 0.6
v 1 3.3 0.6
v 1.2 2.5 0.6
v 1.2 2.6 0.6
v 1.3 2.4 0.6
v 1.3 2.5 0.6
v 1.4 2.1 0.6
v 1.4 2.4 0.6
v 1.5 1.2 0.6
v 1.5 1.3 0.6
v 1.5 1.9 0.6
v 1.5 2.1 0.6
v -1.4 0 0.5
v -1.4 1.2 0.5
v -1.4 2.1 0.5
v -1.4 2.3 0.5
v -1.3 2.1 0.5
v -1.3 2.3 0.5
v -0.9 3.3 0.5
v -0.9 3.4 0.5
v -0.7 3.3 0.5
v -0.7 3.4 0.5
v -0.4 0 0.5
v -0.4 0.5 0.5
v 0.5 0 0.5
v 0.5 0.5 0.5
v 0.8 3.3 0.5
v 0.8 3.4 0.5
v 1 3.3 0.5
v 1 3.4 0.5
v 1.4 2.1 0.5
v 1.4 2.3 0.5
v 1.5 0 0.5
v 1.5 1.2 0.5
v 1.5 2.1 0.5
v 1.5 2.3 0.5
v 1.3 2.3 0.5
v 1.3 2.4 0.5
v 1.4 2.3 0.5
v 1.4 2.4 0.5
v -1.4 0 -0.4
v -1.4 2.3 -0.4
v -1.3 2.3 -0.4
v -1.3 2.4 -0.4
v -1.2 2.4 -0.4
v -1.2 2.5 -0.4
v -1.1 2.5 -0.4
v -1.1 2.6 -0.4
v -0.9 2.6 -0.4
v -0.9 2.7 -0.4
v -0.9 3.4 -0.4
v -0.7 2.7 -0.4
v -0.7 2.8 -0.4
v -0.7 3.4 -0.4
v -0.5 2.8 -0.4
v -0.5 2.9 -0.4
v -0.4 0 -0.4
v -0.4 0.5 -0.4
v -0.4 2.9 -0.4
v -0.4 3 -0.4
v -0.3 3 -0.4
v -0.3 3.1 -0.4
v -0.2 2 -0.4
v -0.2 2.1 -0.4
v -0.2 2.5 -0.4
v -0.2 2.6 -0.4
v -0.2 3.1 -0.4
v -0.2 3.2 -0.4
v -0.1 1.9 -0.4
v -0.1 2 -0.4
v -0.1 2.1 -0.4
v -0.1 2.2 -0.4
v -0.1 2.4 -0.4
v -0.1 2.5 -0.4
v -0.1 2.6 -0.4
v 0.2 1.9 -0.4
v 0.2 2 -0.4
v 0.2 2.1 -0.4
v 0.2 2.2 -0.4
v 0.2 2.4 -0.4
v 0.2 2.5 -0.4
v 0.2 2.6 -0.4
v 0.3 2 -0.4
v 0.3 2.1 -0.4
v 0.3 2.5 -0.4
v 0.3 2.6 -0.4
v 0.3 3.1 -0.4
v 0.3 3.2 -0.4
v 0.4 3 -0.4
v 0.4 3.1 -0.4
v 0.5 0 -0.4
v 0.5 0.5 -0.4
v 0.5 2.9 -0.4
v 0.5 3 -0.4
v 0.6 2.8 -0.4
v 0.6 2.9 -0.4
v 0.8 2.7 -0.4
v 0.8 2.8 -0.4
v 0.8 3.4 -0.4
v 1 2.6 -0.4
v 1 2.7 -0.4
v 1 3.4 -0.4
v 1.2 2.5 -0.4
v 1.2 2.6 -0.4
v 1.3 2.3 -0.4
v 1.3 2.5 -0.4
v 1.5 0 -0.4
v 1.5 2.3 -0.4
v -0.2 2 -0.5
v -0.2 2.1 -0.5
v -0.2 2.5 -0.5
v -0.2 2.6 -0.5
v -0.1 1.9 -0.5
v -0.1 2 -0.5
v -0.1 2.1 -0.5
v -0.1 2.2 -0.5
v -0.1 2.4 -0.5
v -0.1 2.5 -0.5
v -0.1 2.6 -0.5
v 0.2 1.9 -0.5
v 0.2 2 -0.5
v 0.2 2.1 -0.5
v 0.2 2.2 -0.5
v 0.2 2.4 -0.5
v 0.2 2.5 -0.5
v 0.2 2.6 -0.5
v 0.3 2 -0.5
v 0.3 2.1 -0.5
v 0.3 2.5 -0.5
v 0.3 2.6 -0.5
v -1.4 0 0.5
v -0.4 0 0.5
v 0.5 0 0.5
v 1.5 0 0.5
v -1.4 0 -0.4
v -0.4 0 -0.4
v 0.5 0 -0.4
v 1.5 0 -0.4
v -0.4 0.5 0.5
v 0.5 0.5 0.5
v -0.4 0.5 -0.4
v 0.5 0.5 -0.4
v -1.4 1.2 0.6
v 1.5 1.2 0.6
v -1.4 1.2 0.5
v 1.5 1.2 0.5
v -1.4 1.3 0.7
v 1.5 1.3 0.7
v -1.4 1.3 0.6
v 1.5 1.3 0.6
v -0.1 1.9 -0.4
v 0.2 1.9 -0.4
v -0.1 1.9 -0.5
v 0.2 1.9 -0.5
v -0.2 2 -0.4
v -0.1 2 -0.4
v 0.2 2 -0.4
v 0.3 2 -0.4
v -0.2 2 -0.5
v -0.1 2 -0.5
v 0.2 2 -0.5
v 0.3 2 -0.5
v -0.1 2.2 -0.4
v 0.2 2.2 -0.4
v -0.1 2.2 -0.5
v 0.2 2.2 -0.5
v -0.2 2.5 -0.4
v -0.1 2.5 -0.4
v 0.2 2.5 -0.4
v 0.3 2.5 -0.4
v -0.2 2.5 -0.5
v -0.1 2.5 -0.5
v 0.2 2.5 -0.5
v 0.3 2.5 -0.5
v -1.4 1.9 0.7
v 1.5 1.9 0.7
v -1.4 1.9 0.6
v 1.5 1.9 0.6
v -0.1 2 -0.4
v 0.2 2 -0.4
v -0.1 2 -0.5
v 0.2 2 -0.5
v -1.4 2.1 0.6
v -1.3 2.1 0.6
v 1.4 2.1 0.6
v 1.5 2.1 0.6
v -1.4 2.1 0.5
v -1.3 2.1 0.5
v 1.4 2.1 0.5
v 1.5 2.1 0.5
v -0.2 2.1 -0.4
v -0.1 2.1 -0.4
v 0.2 2.1 -0.4
v 0.3 2.1 -0.4
v -0.2 2.1 -0.5
v -0.1 2.1 -0.5
v 0.2 2.1 -0.5
v 0.3 2.1 -0.5
v -1.4 2.3 0.5
v -1.3 2.3 0.5
v 1.3 2.3 0.5
v 1.4 2.3 0.5
v 1.5 2.3 0.5
v -1.4 2.3 -0.4
v -1.3 2.3 -0.4
v 1.3 2.3 -0.4
v 1.5 2.3 -0.4
v -1.3 2.4 0.6
v -1.2 2.4 0.6
v 1.3 2.4 0.6
v 1.4 2.4 0.6
v 1.3 2.4 0.5
v 1.4 2.4 0.5
v -1.3 2.4 -0.4
v -1.2 2.4 -0.4
v -0.1 2.4 -0.4
v 0.2 2.4 -0.4
v -0.1 2.4 -0.5
v 0.2 2.4 -0.5
v -1.2 2.5 0.6
v -1.1 2.5 0.6
v 1.2 2.5 0.6
v 1.3 2.5 0.6
v -1.2 2.5 -0.4
v -1.1 2.5 -0.4
v 1.2 2.5 -0.4
v 1.3 2.5 -0.4
v -1.1 2.6 0.6
v -0.9 2.6 0.6
v 1 2.6 0.6
v 1.2 2.6 0.6
v -1.1 2.6 -0.4
v -0.9 2.6 -0.4
v -0.2 2.6 -0.4
v -0.1 2.6 -0.4
v 0.2 2.6 -0.4
v 0.3 2.6 -0.4
v 1 2.6 -0.4
v 1.2 2.6 -0.4
v -0.2 2.6 -0.5
v -0.1 2.6 -0.5
v 0.2 2.6 -0.5
v 0.3 2.6 -0.5
v -0.7 2.8 0.6
v -0.5 2.8 0.6
v 0.6 2.8 0.6
v 0.8 2.8 0.6
v -0.7 2.8 -0.4
v -0.5 2.8 -0.4
v 0.6 2.8 -0.4
v 0.8 2.8 -0.4
v -0.5 2.9 0.6
v -0.4 2.9 0.6
v 0.5 2.9 0.6
v 0.6 2.9 0.6
v -0.5 2.9 -0.4
v -0.4 2.9 -0.4
v 0.5 2.9 -0.4
v 0.6 2.9 -0.4
v -0.4 3 0.6
v -0.3 3 0.6
v 0.4 3 0.6
v 0.5 3 0.6
v -0.4 3 -0.4
v -0.3 3 -0.4
v 0.4 3 -0.4
v 0.5 3 -0.4
v -0.3 3.1 0.6
v -0.2 3.1 0.6
v 0.3 3.1 0.6
v 0.4 3.1 0.6
v -0.3 3.1 -0.4
v -0.2 3.1 -0.4
v 0.3 3.1 -0.4
v 0.4 3.1 -0.4
v -0.2 3.2 0.6
v 0.3 3.2 0.6
v -0.2 3.2 -0.4
v 0.3 3.2 -0.4
v -0.9 3.3 0.6
v -0.7 3.3 0.6
v 0.8 3.3 0.6
v 1 3.3 0.6
v -0.9 3.3 0.5
v -0.7 3.3 0.5
v 0.8 3.3 0.5
v 1 3.3 0.5
v -0.9 3.4 0.5
v -0.7 3.4 0.5
v 0.8 3.4 0.5
v 1 3.4 0.5
v -0.9 3.4 -0.4
v -0.7 3.4 -0.4
v 0.8 3.4 -0.4
v 1 3.4 -0.4

# faces
f 4/1/1 2/1/1 1/1/1
f 6/1/1 4/1/1 3/1/1
f 7/1/1 6/1/1 5/1/1
f 8/1/1 4/1/1 6/1/1
f 8/1/1 6/1/1 7/1/1
f 9/1/1 4/1/1 8/1/1
f 10/1/1 2/1/1 4/1/1
f 10/1/1 4/1/1 9/1/1
f 11/1/1 2/1/1 10/1/1
f 12/1/1 2/1/1 11/1/1
f 15/1/1 14/1/1 13/1/1
f 17/1/1 15/1/1 13/1/1
f 17/1/1 16/1/1 15/1/1
f 18/1/1 16/1/1 17/1/1
f 21/1/1 20/1/1 19/1/1
f 22/1/1 20/1/1 21/1/1
f 25/1/1 24/1/1 23/1/1
f 26/1/1 24/1/1 25/1/1
f 29/1/1 28/1/1 27/1/1
f 30/1/1 28/1/1 29/1/1
f 31/3/1 30/3/1 29/3/1
f 32/3/1 30/3/1 31/3/1
f 33/3/1 30/3/1 32/3/1
f 34/3/1 30/3/1 33/3/1
f 37/1/1 36/1/1 35/1/1
f 38/1/1 36/1/1 37/1/1
f 41/1/1 40/1/1 39/1/1
f 42/1/1 40/1/1 41/1/1
f 45/1/1 44/1/1 43/1/1
f 46/1/1 44/1/1 45/1/1
f 49/4/1 48/4/1 47/4/1
f 50/4/1 48/4/1 49/4/1
f 53/5/1 52/5/1 51/5/1
f 54/5/1 52/5/1 53/5/1
f 57/1/1 56/1/1 55/1/1
f 58/1/1 56/1/1 57/1/1
f 61/4/1 60/4/1 59/4/1
f 62/4/1 60/4/1 61/4/1
f 65/2/1 64/2/1 63/2/1
f 66/2/1 64/2/1 65/2/1
f 69/4/1 68/4/1 67/4/1
f 70/4/1 68/4/1 69/4/1
f 73/5/1 72/5/1 71/5/1
f 74/5/1 72/5/1 73/5/1
f 77/1/1 76/1/1 75/1/1
f 78/1/1 76/1/1 77/1/1
f 81/3/1 80/3/1 79/3/1
f 82/3/1 80/3/1 81/3/1
f 83/3/1 80/3/1 82/3/1
f 84/3/1 80/3/1 83/3/1
f 85/3/2 86/3/2 87/3/2
f 87/3/2 86/3/2 88/3/2
f 88/3/2 86/3/2 89/3/2
f 89/3/2 86/3/2 90/3/2
f 91/1/2 92/1/2 93/1/2
f 93/1/2 92/1/2 94/1/2
f 95/4/2 96/4/2 97/4/2
f 97/4/2 96/4/2 98/4/2
f 99/5/2 100/5/2 101/5/2
f 101/5/2 100/5/2 102/5/2
f 103/4/2 104/4/2 105/4/2
f 105/4/2 104/4/2 106/4/2
f 107/2/2 108/2/2 109/2/2
f 109/2/2 108/2/2 110/2/2
f 111/4/2 112/4/2 113/4/2
f 113/4/2 112/4/2 114/4/2
f 115/5/2 116/5/2 117/5/2
f 117/5/2 116/5/2 118/5/2
f 119/1/2 120/1/2 121/1/2
f 121/1/2 120/1/2 122/1/2
f 123/1/2 124/1/2 125/1/2
f 125/1/2 124/1/2 126/1/2
f 127/1/2 128/1/2 129/1/2
f 129/1/2 128/1/2 130/1/2
f 131/1/2 132/1/2 133/1/2
f 133/1/2 132/1/2 134/1/2
f 135/1/2 136/1/2 137/1/2
f 137/1/2 136/1/2 138/1/2
f 137/3/2 138/3/2 139/3/2
f 139/3/2 138/3/2 140/3/2
f 140/3/2 138/3/2 141/3/2
f 141/3/2 138/3/2 142/3/2
f 143/1/2 144/1/2 145/1/2
f 145/1/2 144/1/2 146/1/2
f 147/1/2 148/1/2 150/1/2
f 149/1/2 150/1/2 151/1/2
f 150/1/2 148/1/2 152/1/2
f 151/1/2 150/1/2 152/1/2
f 153/1/2 154/1/2 155/1/2
f 153/1/2 155/1/2 156/1/2
f 156/1/2 155/1/2 157/1/2
f 158/1/2 159/1/2 161/1/2
f 160/1/2 161/1/2 163/1/2
f 162/1/2 163/1/2 164/1/2
f 163/1/2 161/1/2 165/1/2
f 164/1/2 163/1/2 165/1/2
f 165/1/2 161/1/2 166/1/2
f 161/1/2 159/1/2 167/1/2
f 166/1/2 161/1/2 167/1/2
f 167/1/2 159/1/2 168/1/2
f 168/1/2 159/1/2 169/1/2
f 172/1/3 171/1/3 170/1/3
f 173/1/3 171/1/3 172/1/3
f 178/1/3 177/1/3 176/1/3
f 180/1/3 179/1/3 178/1/3
f 182/1/3 181/1/3 180/1/3
f 184/1/3 183/1/3 182/1/3
f 187/1/3 185/1/3 184/1/3
f 187/3/3 186/3/3 185/3/3
f 188/3/3 186/3/3 187/3/3
f 189/3/3 186/3/3 188/3/3
f 190/1/3 188/1/3 187/1/3
f 192/1/3 191/1/3 190/1/3
f 194/1/3 193/1/3 192/1/3
f 196/1/3 195/1/3 194/1/3
f 198/1/3 196/1/3 194/1/3
f 198/1/3 197/1/3 196/1/3
f 199/1/3 197/1/3 198/1/3
f 200/1/3 194/1/3 192/1/3
f 200/1/3 198/1/3 194/1/3
f 201/1/3 198/1/3 200/1/3
f 202/1/3 192/1/3 190/1/3
f 202/1/3 200/1/3 192/1/3
f 203/1/3 200/1/3 202/1/3
f 204/1/3 190/1/3 187/1/3
f 204/1/3 202/1/3 190/1/3
f 205/1/3 202/1/3 204/1/3
f 206/1/3 187/1/3 184/1/3
f 206/1/3 204/1/3 187/1/3
f 207/1/3 204/1/3 206/1/3
f 209/1/3 184/1/3 182/1/3
f 209/1/3 206/1/3 184/1/3
f 210/3/3 208/3/3 207/3/3
f 210/1/3 206/1/3 209/1/3
f 210/3/3 207/3/3 206/3/3
f 211/3/3 208/3/3 210/3/3
f 212/1/3 182/1/3 180/1/3
f 212/1/3 209/1/3 182/1/3
f 213/1/3 209/1/3 212/1/3
f 214/1/3 180/1/3 178/1/3
f 214/1/3 212/1/3 180/1/3
f 215/1/3 212/1/3 214/1/3
f 216/1/3 178/1/3 176/1/3
f 216/1/3 214/1/3 178/1/3
f 217/1/3 214/1/3 216/1/3
f 218/1/3 175/1/3 174/1/3
f 219/1/3 175/1/3 218/1/3
f 220/1/3 216/1/3 176/1/3
f 221/1/3 216/1/3 220/1/3
f 226/1/3 225/1/3 224/1/3
f 227/1/3 225/1/3 226/1/3
f 230/3/3 229/3/3 228/3/3
f 231/3/3 229/3/3 230/3/3
f 232/1/3 223/1/3 222/1/3
f 233/1/3 223/1/3 232/1/3
f 235/1/3 223/1/3 233/1/3
f 238/3/3 237/3/3 236/3/3
f 239/3/3 237/3/3 238/3/3
f 242/1/3 235/1/3 234/1/3
f 243/1/3 223/1/3 235/1/3
f 243/1/3 235/1/3 242/1/3
f 244/1/3 241/1/3 240/1/3
f 245/1/3 241/1/3 244/1/3
f 246/1/4 247/1/4 248/1/4
f 248/1/4 247/1/4 249/1/4
f 250/1/4 251/1/4 252/1/4
f 252/1/4 253/1/4 254/1/4
f 254/1/4 255/1/4 256/1/4
f 256/1/4 257/1/4 258/1/4
f 258/1/4 259/1/4 261/1/4
f 259/3/4 260/3/4 261/3/4
f 261/3/4 260/3/4 262/3/4
f 262/3/4 260/3/4 263/3/4
f 261/1/4 262/1/4 264/1/4
f 250/1/4 252/1/4 266/1/4
f 264/1/4 265/1/4 266/1/4
f 261/1/4 264/1/4 266/1/4
f 252/1/4 254/1/4 266/1/4
f 258/1/4 261/1/4 266/1/4
f 256/1/4 258/1/4 266/1/4
f 254/1/4 256/1/4 266/1/4
f 266/1/4 265/1/4 267/1/4
f 267/1/4 265/1/4 268/1/4
f 268/1/4 269/1/4 270/1/4
f 267/1/4 268/1/4 270/1/4
f 267/1/4 270/1/4 272/1/4
f 270/1/4 271/1/4 272/1/4
f 272/1/4 271/1/4 273/1/4
f 273/1/4 271/1/4 274/1/4
f 274/1/4 271/1/4 275/1/4
f 275/1/4 271/1/4 276/1/4
f 267/1/4 272/1/4 278/1/4
f 278/1/4 272/1/4 279/1/4
f 273/1/4 274/1/4 280/1/4
f 280/1/4 274/1/4 281/1/4
f 281/1/4 274/1/4 282/1/4
f 282/1/4 274/1/4 283/1/4
f 276/1/4 277/1/4 284/1/4
f 275/1/4 276/1/4 284/1/4
f 267/1/4 278/1/4 285/1/4
f 279/1/4 280/1/4 286/1/4
f 280/1/4 281/1/4 286/1/4
f 286/1/4 281/1/4 287/1/4
f 287/1/4 281/1/4 288/1/4
f 282/1/4 283/1/4 289/1/4
f 283/1/4 284/1/4 289/1/4
f 289/1/4 284/1/4 290/1/4
f 284/1/4 277/1/4 291/1/4
f 290/1/4 284/1/4 291/1/4
f 285/1/4 286/1/4 292/1/4
f 287/1/4 288/1/4 293/1/4
f 289/1/4 290/1/4 293/1/4
f 288/1/4 289/1/4 293/1/4
f 293/1/4 290/1/4 294/1/4
f 291/1/4 277/1/4 295/1/4
f 295/1/4 277/1/4 296/1/4
f 296/1/4 277/1/4 297/1/4
f 293/1/4 294/1/4 298/1/4
f 292/1/4 293/1/4 298/1/4
f 295/1/4 296/1/4 298/1/4
f 294/1/4 295/1/4 298/1/4
f 298/1/4 296/1/4 299/1/4
f 285/1/4 292/1/4 301/1/4
f 267/1/4 285/1/4 301/1/4
f 292/1/4 298/1/4 301/1/4
f 301/1/4 298/1/4 302/1/4
f 302/1/4 298/1/4 303/1/4
f 300/1/4 301/1/4 304/1/4
f 301/1/4 302/1/4 304/1/4
f 304/1/4 302/1/4 305/1/4
f 300/1/4 304/1/4 306/1/4
f 306/1/4 304/1/4 307/1/4
f 300/1/4 306/1/4 309/1/4
f 306/3/4 307/3/4 310/3/4
f 309/1/4 306/1/4 310/1/4
f 307/3/4 308/3/4 310/3/4
f 310/3/4 308/3/4 311/3/4
f 300/1/4 309/1/4 312/1/4
f 312/1/4 309/1/4 313/1/4
f 300/1/4 312/1/4 314/1/4
f 314/1/4 312/1/4 315/1/4
f 300/1/4 314/1/4 316/1/4
f 316/1/4 314/1/4 317/1/4
f 318/4/4 319/4/4 323/4/4
f 323/4/4 319/4/4 324/4/4
f 320/5/4 321/5/4 327/5/4
f 327/5/4 321/5/4 328/5/4
f 322/4/4 323/4/4 329/4/4
f 329/4/4 323/4/4 330/4/4
f 325/2/4 326/2/4 332/2/4
f 332/2/4 326/2/4 333/2/4
f 330/4/4 331/4/4 336/4/4
f 336/4/4 331/4/4 337/4/4
f 334/5/4 335/5/4 338/5/4
f 338/5/4 335/5/4 339/5/4
f 344/1/5 341/1/5 340/1/5
f 345/1/5 341/1/5 344/1/5
f 346/1/5 343/1/5 342/1/5
f 347/1/5 343/1/5 346/1/5
f 350/1/5 349/1/5 348/1/5
f 351/1/5 349/1/5 350/1/5
f 354/1/5 353/1/5 352/1/5
f 355/1/5 353/1/5 354/1/5
f 358/1/5 357/1/5 356/1/5
f 359/1/5 357/1/5 358/1/5
f 362/4/5 361/4/5 360/4/5
f 363/4/5 361/4/5 362/4/5
f 368/4/5 365/4/5 364/4/5
f 369/4/5 365/4/5 368/4/5
f 370/4/5 367/4/5 366/4/5
f 371/4/5 367/4/5 370/4/5
f 374/2/5 373/2/5 372/2/5
f 375/2/5 373/2/5 374/2/5
f 380/5/5 377/5/5 376/5/5
f 381/5/5 377/5/5 380/5/5
f 382/5/5 379/5/5 378/5/5
f 383/5/5 379/5/5 382/5/5
f 384/1/6 385/1/6 386/1/6
f 386/1/6 385/1/6 387/1/6
f 388/4/6 389/4/6 390/4/6
f 390/4/6 389/4/6 391/4/6
f 392/1/6 393/1/6 396/1/6
f 396/1/6 393/1/6 397/1/6
f 394/1/6 395/1/6 398/1/6
f 398/1/6 395/1/6 399/1/6
f 400/4/6 401/4/6 404/4/6
f 404/4/6 401/4/6 405/4/6
f 402/4/6 403/4/6 406/4/6
f 406/4/6 403/4/6 407/4/6
f 408/1/6 409/1/6 413/1/6
f 413/1/6 409/1/6 414/1/6
f 411/1/6 412/1/6 415/1/6
f 410/1/6 411/1/6 415/1/6
f 415/1/6 412/1/6 416/1/6
f 419/1/6 420/1/6 421/1/6
f 421/1/6 420/1/6 422/1/6
f 417/1/6 418/1/6 423/1/6
f 423/1/6 418/1/6 424/1/6
f 425/2/6 426/2/6 427/2/6
f 427/2/6 426/2/6 428/2/6
f 429/1/6 430/1/6 433/1/6
f 433/1/6 430/1/6 434/1/6
f 431/1/6 432/1/6 435/1/6
f 435/1/6 432/1/6 436/1/6
f 437/1/6 438/1/6 441/1/6
f 441/1/6 438/1/6 442/1/6
f 439/1/6 440/1/6 447/1/6
f 447/1/6 440/1/6 448/1/6
f 443/5/6 444/5/6 449/5/6
f 449/5/6 444/5/6 450/5/6
f 445/5/6 446/5/6 451/5/6
f 451/5/6 446/5/6 452/5/6
f 453/1/6 454/1/6 457/1/6
f 457/1/6 454/1/6 458/1/6
f 455/1/6 456/1/6 459/1/6
f 459/1/6 456/1/6 460/1/6
f 461/1/6 462/1/6 465/1/6
f 465/1/6 462/1/6 466/1/6
f 463/1/6 464/1/6 467/1/6
f 467/1/6 464/1/6 468/1/6
f 469/1/6 470/1/6 473/1/6
f 473/1/6 470/1/6 474/1/6
f 471/1/6 472/1/6 475/1/6
f 475/1/6 472/1/6 476/1/6
f 477/1/6 478/1/6 481/1/6
f 481/1/6 478/1/6 482/1/6
f 479/1/6 480/1/6 483/1/6
f 483/1/6 480/1/6 484/1/6
f 485/1/6 486/1/6 487/1/6
f 487/1/6 486/1/6 488/1/6
f 489/3/6 490/3/6 493/3/6
f 493/3/6 490/3/6 494/3/6
f 491/3/6 492/3/6 495/3/6
f 495/3/6 492/3/6 496/3/6
f 497/3/6 498/3/6 501/3/6
f 501/3/6 498/3/6 502/3/6
f 499/3/6 500/3/6 503/3/6
f 503/3/6 500/3/6 504/3/6
